<svg width="322" height="83" viewBox="0 0 322 83" fill="none" xmlns="http://www.w3.org/2000/svg">
    <path d="M115.528 29.752H101.832V21.304H139.272V29.752H125.576V67H115.528V29.752ZM142.621 21.304H156.765L167.453 52.728H167.581L177.693 21.304H191.837V67H182.429V34.616H182.301L171.101 67H163.357L152.157 34.936H152.029V67H142.621V21.304ZM237.548 49.72C237.548 55.9067 235.82 60.5147 232.364 63.544C228.908 66.5307 224.129 68.024 218.028 68.024C211.841 68.024 207.041 66.5307 203.628 63.544C200.257 60.5573 198.572 55.9493 198.572 49.72V21.304H208.62V49.72C208.62 50.9573 208.726 52.1733 208.94 53.368C209.153 54.5627 209.601 55.6293 210.284 56.568C210.966 57.464 211.905 58.2107 213.1 58.808C214.337 59.3627 215.98 59.64 218.028 59.64C221.612 59.64 224.086 58.8507 225.452 57.272C226.817 55.6507 227.5 53.1333 227.5 49.72V21.304H237.548V49.72ZM250.361 56.248C250.361 57.2293 250.553 58.0827 250.937 58.808C251.364 59.4907 251.897 60.0667 252.537 60.536C253.177 60.9627 253.902 61.2827 254.713 61.496C255.566 61.7093 256.441 61.816 257.337 61.816C257.977 61.816 258.638 61.752 259.321 61.624C260.046 61.4533 260.686 61.2187 261.241 60.92C261.838 60.5787 262.329 60.152 262.713 59.64C263.097 59.0853 263.289 58.4027 263.289 57.592C263.289 56.2267 262.372 55.2027 260.537 54.52C258.745 53.8373 256.228 53.1547 252.985 52.472C251.662 52.1733 250.361 51.832 249.081 51.448C247.844 51.0213 246.734 50.488 245.753 49.848C244.772 49.1653 243.982 48.3333 243.385 47.352C242.788 46.328 242.489 45.0907 242.489 43.64C242.489 41.5067 242.894 39.7573 243.705 38.392C244.558 37.0267 245.668 35.96 247.033 35.192C248.398 34.3813 249.934 33.8267 251.641 33.528C253.348 33.1867 255.097 33.016 256.889 33.016C258.681 33.016 260.409 33.1867 262.073 33.528C263.78 33.8693 265.294 34.4453 266.617 35.256C267.94 36.0667 269.028 37.1547 269.881 38.52C270.777 39.8427 271.31 41.528 271.481 43.576H262.841C262.713 41.8267 262.052 40.6533 260.857 40.056C259.662 39.416 258.254 39.096 256.633 39.096C256.121 39.096 255.566 39.1387 254.969 39.224C254.372 39.2667 253.817 39.3947 253.305 39.608C252.836 39.8213 252.43 40.1413 252.089 40.568C251.748 40.952 251.577 41.4853 251.577 42.168C251.577 42.9787 251.876 43.64 252.473 44.152C253.07 44.664 253.838 45.0907 254.777 45.432C255.758 45.7307 256.868 46.008 258.105 46.264C259.342 46.52 260.601 46.7973 261.881 47.096C263.204 47.3947 264.484 47.7573 265.721 48.184C267.001 48.6107 268.132 49.1867 269.113 49.912C270.094 50.5947 270.884 51.4693 271.481 52.536C272.078 53.56 272.377 54.84 272.377 56.376C272.377 58.552 271.929 60.3867 271.033 61.88C270.18 63.3307 269.049 64.504 267.641 65.4C266.233 66.296 264.612 66.9147 262.777 67.256C260.985 67.64 259.15 67.832 257.273 67.832C255.353 67.832 253.476 67.64 251.641 67.256C249.806 66.872 248.164 66.232 246.713 65.336C245.305 64.44 244.132 63.2667 243.193 61.816C242.297 60.3227 241.806 58.4667 241.721 56.248H250.361ZM285.12 28.792H276.032V21.304H285.12V28.792ZM276.032 33.912H285.12V67H276.032V33.912ZM312.884 45.56C312.287 41.7627 310.047 39.864 306.164 39.864C304.713 39.864 303.497 40.2053 302.516 40.888C301.535 41.528 300.724 42.3813 300.084 43.448C299.487 44.472 299.06 45.624 298.804 46.904C298.548 48.1413 298.42 49.3787 298.42 50.616C298.42 51.8107 298.548 53.0267 298.804 54.264C299.06 55.5013 299.465 56.632 300.02 57.656C300.617 58.6373 301.407 59.448 302.388 60.088C303.369 60.728 304.564 61.048 305.972 61.048C308.148 61.048 309.812 60.4507 310.964 59.256C312.159 58.0187 312.905 56.376 313.204 54.328H321.972C321.375 58.7227 319.668 62.072 316.852 64.376C314.036 66.68 310.431 67.832 306.036 67.832C303.561 67.832 301.279 67.4267 299.188 66.616C297.14 65.7627 295.391 64.5893 293.94 63.096C292.489 61.6027 291.359 59.832 290.548 57.784C289.737 55.6933 289.332 53.4107 289.332 50.936C289.332 48.376 289.695 46.008 290.42 43.832C291.188 41.6133 292.297 39.7147 293.748 38.136C295.199 36.5147 296.969 35.256 299.06 34.36C301.151 33.464 303.54 33.016 306.228 33.016C308.191 33.016 310.068 33.272 311.86 33.784C313.695 34.296 315.316 35.0853 316.724 36.152C318.175 37.176 319.348 38.4773 320.244 40.056C321.14 41.592 321.652 43.4267 321.78 45.56H312.884Z" fill="white"/>
    <circle cx="41.3436" cy="41.3436" r="41.3436" fill="#133395"/>
    <path d="M61.1659 50.9716L61.1659 27.1848" stroke="#F7BF37" stroke-width="6" stroke-linecap="round"/>
    <path d="M33.981 47.5734L33.981 35.1137" stroke="#F7BF37" stroke-width="6" stroke-linecap="round"/>
    <path d="M20.3886 50.9716L20.3886 30.5829" stroke="#F7BF37" stroke-width="6" stroke-linecap="round"/>
    <path d="M47.5735 61.1659L47.5735 20.3886" stroke="#F7BF37" stroke-width="6" stroke-linecap="round"/>
</svg>
