<svg width="423" height="151" viewBox="0 0 423 151" fill="none" xmlns="http://www.w3.org/2000/svg">
<g clip-path="url(#clip0_6_2)">
<path d="M142.768 98L150.128 62.48H137.712L140.016 51.344H178.096L175.792 62.48H162.992L155.632 98H142.768ZM170.179 98L179.907 51.344H199.3L200.196 76.688H200.708L211.908 51.344H231.3L221.572 98H209.156L212.292 82.96L216.196 64.848H215.748L201.22 98H190.723L190.02 64.848H189.444L185.859 83.088L182.724 98H170.179ZM248.347 98.64C243.738 98.64 240.005 97.7867 237.146 96.08C234.288 94.3307 232.346 91.9413 231.322 88.912C230.298 85.84 230.192 82.3413 231.002 78.416L236.634 51.344H249.243L243.546 78.8C243.162 80.72 243.162 82.2987 243.546 83.536C243.973 84.7733 244.698 85.6907 245.722 86.288C246.789 86.8853 248.09 87.184 249.626 87.184C251.461 87.184 252.955 86.8427 254.107 86.16C255.301 85.4347 256.24 84.432 256.923 83.152C257.648 81.872 258.181 80.3787 258.522 78.672L264.219 51.344H276.826L270.555 81.168C269.744 85.136 268.293 88.4213 266.202 91.024C264.112 93.584 261.552 95.504 258.522 96.784C255.493 98.0213 252.101 98.64 248.347 98.64ZM290.902 98.64C286.891 98.64 283.478 98.0213 280.662 96.784C277.846 95.504 275.734 93.6907 274.326 91.344C272.961 88.9973 272.363 86.2027 272.534 82.96H285.142C285.099 84.112 285.334 85.1147 285.846 85.968C286.358 86.8213 287.105 87.4827 288.086 87.952C289.067 88.4213 290.219 88.656 291.542 88.656C293.547 88.656 295.041 88.2933 296.022 87.568C297.046 86.8427 297.579 85.776 297.622 84.368C297.665 83.7707 297.601 83.28 297.43 82.896C297.259 82.4693 296.939 82.1067 296.47 81.808C296.043 81.4667 295.425 81.168 294.614 80.912C293.803 80.6133 292.779 80.2933 291.542 79.952C288.939 79.2267 286.699 78.4373 284.822 77.584C282.945 76.7307 281.43 75.7707 280.278 74.704C279.126 73.5947 278.294 72.336 277.782 70.928C277.27 69.52 277.035 67.92 277.078 66.128C277.206 62.8 278.145 60.0053 279.894 57.744C281.643 55.44 283.99 53.712 286.934 52.56C289.878 51.3653 293.206 50.768 296.918 50.768C300.502 50.768 303.574 51.408 306.134 52.688C308.694 53.9253 310.657 55.6533 312.022 57.872C313.387 60.048 314.006 62.544 313.878 65.36H300.822C300.907 64.3787 300.758 63.5467 300.374 62.864C300.033 62.1387 299.478 61.584 298.71 61.2C297.942 60.816 296.982 60.624 295.83 60.624C294.849 60.624 293.995 60.7733 293.27 61.072C292.545 61.3707 291.99 61.7973 291.606 62.352C291.222 62.864 291.009 63.5253 290.966 64.336C290.923 65.0613 291.115 65.68 291.542 66.192C291.969 66.6613 292.63 67.0667 293.526 67.408C294.422 67.7493 295.553 68.0907 296.918 68.432C299.777 69.1147 302.145 69.8613 304.022 70.672C305.942 71.4827 307.457 72.4427 308.566 73.552C309.718 74.6187 310.507 75.856 310.934 77.264C311.403 78.672 311.595 80.3147 311.51 82.192C311.425 85.6053 310.529 88.5493 308.822 91.024C307.158 93.456 304.79 95.3333 301.718 96.656C298.689 97.9787 295.083 98.64 290.902 98.64ZM311.704 98L321.368 51.344H334.232L324.568 98H311.704ZM354.767 98.576C351.097 98.576 347.855 98.064 345.039 97.04C342.265 95.9733 339.94 94.4587 338.062 92.496C336.228 90.5333 334.841 88.208 333.903 85.52C333.007 82.7893 332.623 79.76 332.751 76.432C332.879 72.5493 333.583 69.0293 334.863 65.872C336.143 62.7147 337.892 60.0267 340.111 57.808C342.329 55.5467 344.932 53.8187 347.919 52.624C350.948 51.4293 354.276 50.832 357.903 50.832C362.127 50.832 365.817 51.5573 368.975 53.008C372.175 54.4587 374.671 56.464 376.463 59.024C378.255 61.584 379.193 64.5707 379.279 67.984H366.351C366.223 66.6613 365.775 65.5307 365.007 64.592C364.238 63.6107 363.236 62.864 361.999 62.352C360.804 61.84 359.417 61.584 357.839 61.584C355.492 61.584 353.444 62.224 351.695 63.504C349.945 64.784 348.58 66.576 347.599 68.88C346.66 71.184 346.127 73.872 345.999 76.944C345.956 78.7787 346.105 80.3787 346.447 81.744C346.831 83.0667 347.385 84.176 348.111 85.072C348.836 85.968 349.711 86.6507 350.735 87.12C351.759 87.5467 352.889 87.7813 354.127 87.824C355.791 87.8667 357.241 87.6747 358.479 87.248C359.759 86.7787 360.825 86.0747 361.679 85.136C362.532 84.1973 363.172 83.0453 363.599 81.68H376.655C376.057 85.136 374.777 88.144 372.815 90.704C370.852 93.2213 368.335 95.1627 365.263 96.528C362.191 97.8933 358.692 98.576 354.767 98.576Z" fill="white"/>
<circle cx="72.3436" cy="75.3436" r="41.3436" transform="rotate(-165 72.3436 75.3436)" fill="#1D4ED8"/>
<path d="M59.5186 60.0603L53.3622 83.0365" stroke="#F7BF37" stroke-width="6" stroke-linecap="round"/>
<path d="M90.8624 74.4497L87.4977 87.0067" stroke="#F7BF37" stroke-width="6" stroke-linecap="round"/>
<path d="M79.4607 74.5005L77.649 81.262" stroke="#F7BF37" stroke-width="6" stroke-linecap="round"/>
<path d="M72.4707 54.2231L61.9168 93.6109" stroke="#F7BF37" stroke-width="6" stroke-linecap="round"/>
</g>
<defs>
<clipPath id="clip0_6_2">
<rect width="423" height="151" fill="white"/>
</clipPath>
</defs>
</svg>
